<svg xmlns="http://www.w3.org/2000/svg" xmlns:xlink="http://www.w3.org/1999/xlink" width="500" zoomAndPan="magnify" viewBox="0 0 375 374.999991" height="500" preserveAspectRatio="xMidYMid meet" version="1.0"><defs><g/><clipPath id="e71827935f"><path d="M 194 136 L 221 136 L 221 152 L 194 152 Z M 194 136 " clip-rule="nonzero"/></clipPath><clipPath id="f0c6bfaafd"><path d="M 139.851562 118.554688 L 217.867188 96.765625 L 234.816406 157.441406 L 156.800781 179.234375 Z M 139.851562 118.554688 " clip-rule="nonzero"/></clipPath><clipPath id="4a2d162044"><path d="M 139.851562 118.554688 L 217.867188 96.765625 L 234.816406 157.441406 L 156.800781 179.234375 Z M 139.851562 118.554688 " clip-rule="nonzero"/></clipPath><clipPath id="43fa8ed8c2"><path d="M 182 119 L 231 119 L 231 167 L 182 167 Z M 182 119 " clip-rule="nonzero"/></clipPath><clipPath id="9a28cc9588"><path d="M 139.851562 118.554688 L 217.867188 96.765625 L 234.816406 157.441406 L 156.800781 179.234375 Z M 139.851562 118.554688 " clip-rule="nonzero"/></clipPath><clipPath id="a827c0222c"><path d="M 139.851562 118.554688 L 217.867188 96.765625 L 234.816406 157.441406 L 156.800781 179.234375 Z M 139.851562 118.554688 " clip-rule="nonzero"/></clipPath><clipPath id="41bc280b05"><path d="M 178.101562 129.183594 L 223.679688 116.453125 L 235.148438 157.515625 L 189.574219 170.246094 Z M 178.101562 129.183594 " clip-rule="nonzero"/></clipPath><clipPath id="13ebbffce1"><path d="M 178.101562 129.183594 L 223.667969 116.457031 L 235.128906 157.480469 L 189.5625 170.210938 Z M 178.101562 129.183594 " clip-rule="nonzero"/></clipPath><clipPath id="deb6c38dc1"><path d="M 206 141 L 215 141 L 215 152 L 206 152 Z M 206 141 " clip-rule="nonzero"/></clipPath><clipPath id="0720b1c6ab"><path d="M 139.851562 118.554688 L 217.867188 96.765625 L 234.816406 157.441406 L 156.800781 179.234375 Z M 139.851562 118.554688 " clip-rule="nonzero"/></clipPath><clipPath id="6af177e282"><path d="M 139.851562 118.554688 L 217.867188 96.765625 L 234.816406 157.441406 L 156.800781 179.234375 Z M 139.851562 118.554688 " clip-rule="nonzero"/></clipPath><clipPath id="efe17abe39"><path d="M 148 112 L 192 112 L 192 161 L 148 161 Z M 148 112 " clip-rule="nonzero"/></clipPath><clipPath id="63fac427f1"><path d="M 139.851562 118.554688 L 217.867188 96.765625 L 234.816406 157.441406 L 156.800781 179.234375 Z M 139.851562 118.554688 " clip-rule="nonzero"/></clipPath><clipPath id="bf900574f1"><path d="M 139.851562 118.554688 L 217.867188 96.765625 L 234.816406 157.441406 L 156.800781 179.234375 Z M 139.851562 118.554688 " clip-rule="nonzero"/></clipPath><clipPath id="e492556e77"><path d="M 172 129 L 179 129 L 179 147 L 172 147 Z M 172 129 " clip-rule="nonzero"/></clipPath><clipPath id="10194dc408"><path d="M 139.851562 118.554688 L 217.867188 96.765625 L 234.816406 157.441406 L 156.800781 179.234375 Z M 139.851562 118.554688 " clip-rule="nonzero"/></clipPath><clipPath id="de149383a9"><path d="M 139.851562 118.554688 L 217.867188 96.765625 L 234.816406 157.441406 L 156.800781 179.234375 Z M 139.851562 118.554688 " clip-rule="nonzero"/></clipPath><clipPath id="051a90932b"><path d="M 161 125 L 171 125 L 171 143 L 161 143 Z M 161 125 " clip-rule="nonzero"/></clipPath><clipPath id="037741c65f"><path d="M 139.851562 118.554688 L 217.867188 96.765625 L 234.816406 157.441406 L 156.800781 179.234375 Z M 139.851562 118.554688 " clip-rule="nonzero"/></clipPath><clipPath id="632f08f445"><path d="M 139.851562 118.554688 L 217.867188 96.765625 L 234.816406 157.441406 L 156.800781 179.234375 Z M 139.851562 118.554688 " clip-rule="nonzero"/></clipPath></defs><rect x="-37.5" width="450" fill="#ffffff" y="-37.499999" height="449.999989" fill-opacity="1"/><rect x="-37.5" width="450" fill="#893535" y="-37.499999" height="449.999989" fill-opacity="1"/><g clip-path="url(#e71827935f)"><g clip-path="url(#f0c6bfaafd)"><g clip-path="url(#4a2d162044)"><path fill="#ffffff" d="M 215.601562 138.902344 C 215.589844 138.894531 215.582031 138.886719 215.574219 138.878906 C 214.746094 138.183594 216.628906 137.960938 218.410156 136.367188 C 218.222656 136.078125 216.066406 137.171875 211.738281 139.183594 C 211.394531 139.34375 211.210938 139.410156 210.9375 139.503906 C 208.847656 140.070312 207.867188 140.492188 206.359375 141.476562 C 205.878906 141.867188 205.398438 142.214844 204.925781 142.53125 C 204.550781 142.625 204.179688 142.726562 203.8125 142.84375 C 202.695312 143.175781 201.605469 143.597656 200.535156 144.058594 C 199.472656 144.539062 198.425781 145.054688 197.425781 145.652344 C 196.421875 146.242188 195.449219 146.890625 194.550781 147.648438 C 195.652344 147.242188 196.710938 146.789062 197.769531 146.332031 L 198.425781 146.042969 C 199.574219 145.652344 201.8125 144.890625 201.851562 144.890625 C 202.304688 144.863281 202.445312 145.0625 202.507812 145.210938 C 202.769531 145.808594 202.277344 146.691406 201.882812 147.394531 C 201.707031 147.710938 201.019531 148.808594 200.460938 151.742188 L 200.632812 151.410156 C 201.433594 149.867188 202.53125 147.757812 203.773438 145.738281 L 203.925781 145.492188 C 204.457031 144.617188 204.878906 143.925781 205.710938 143.246094 C 208.035156 141.34375 210.59375 140.582031 213.015625 140.046875 L 213.464844 139.945312 C 213.867188 139.863281 214.324219 139.75 214.808594 139.617188 C 215.105469 139.578125 215.40625 139.539062 215.707031 139.492188 C 216.585938 139.351562 219.964844 139.015625 220.648438 138.394531 C 219.96875 138.105469 215.640625 138.929688 215.601562 138.902344 " fill-opacity="1" fill-rule="nonzero"/></g></g></g><g clip-path="url(#43fa8ed8c2)"><g clip-path="url(#9a28cc9588)"><g clip-path="url(#a827c0222c)"><g clip-path="url(#41bc280b05)"><g clip-path="url(#13ebbffce1)"><path fill="#ffffff" d="M 228.6875 147.210938 C 228.433594 148.113281 224.835938 148.644531 223.558594 148.714844 C 215.136719 149.171875 212.75 141.925781 209.445312 144.230469 C 206.542969 146.253906 210.386719 149.917969 207.683594 160.171875 C 206.394531 165.066406 203.15625 165.371094 203.109375 164.898438 C 202.871094 162.527344 203.136719 159.519531 200.277344 162.726562 C 199.769531 163.292969 198.9375 164.101562 198.382812 163.5625 C 197.722656 162.910156 198.554688 160.390625 197.742188 159.582031 C 197.546875 159.390625 197.28125 159.300781 196.941406 159.316406 C 196.207031 159.355469 193.960938 161.476562 193.6875 160.632812 C 193.339844 159.578125 194.15625 157.816406 193.394531 156.964844 C 192.953125 156.472656 192.09375 156.59375 192.023438 156.585938 C 190.023438 156.730469 188.910156 158.292969 189.527344 155.992188 C 189.609375 155.695312 189.699219 155.359375 189.761719 155.019531 C 190.46875 153.777344 190.191406 152.621094 188.742188 152.492188 C 188.113281 152.445312 186.324219 152.648438 186.023438 152.179688 C 186.089844 151.800781 187.941406 149.996094 188.125 149.234375 C 188.585938 146.367188 181.519531 148.820312 185.488281 145.535156 C 187.066406 144.230469 187.65625 143.304688 185.695312 142.179688 C 184.574219 141.539062 183.011719 141.800781 183.046875 141.066406 C 183.144531 139.890625 184.898438 138.425781 189.527344 138.175781 C 192.921875 137.988281 196.503906 138.625 201.441406 139.804688 C 199.847656 140.480469 198.910156 140.914062 196.011719 141.320312 C 196.921875 141.425781 197.84375 141.429688 198.765625 141.355469 C 198.738281 141.367188 198.707031 141.382812 198.679688 141.394531 C 198.847656 141.394531 199.023438 141.390625 199.199219 141.382812 C 204.417969 141.097656 210.082031 136.800781 209.882812 131.167969 C 209.300781 133.726562 208.085938 135.578125 205.960938 137.230469 C 205.980469 134.691406 205.390625 132.976562 206.558594 129.046875 C 207.394531 126.226562 211.71875 119.230469 213.445312 120.597656 C 214.402344 121.359375 212.902344 123.683594 213.84375 124.78125 C 214.882812 125.988281 217.195312 123.332031 218.21875 123.554688 C 218.667969 123.652344 217.984375 126.398438 218.394531 126.996094 C 218.886719 127.800781 220.242188 127.144531 221.632812 127.070312 C 224.316406 126.921875 218.824219 132.046875 224.199219 131.125 C 224.554688 131.066406 224.886719 131.007812 225.175781 130.992188 C 225.410156 130.980469 225.855469 131.011719 226.011719 131.1875 C 226.019531 131.195312 226.027344 131.207031 226.039062 131.21875 C 226.652344 132.582031 221.816406 135.410156 225.925781 136.152344 C 226.839844 136.316406 229.492188 135.523438 227.351562 138.066406 C 224.488281 141.464844 228.621094 140.902344 229.273438 141.585938 C 229.28125 142.886719 224.398438 144.535156 227.390625 145.828125 C 228.132812 146.148438 228.878906 146.515625 228.6875 147.210938 Z M 227.167969 144.460938 C 227.929688 143.761719 230.347656 143.125 230.28125 141.5625 C 230.054688 139.679688 226.527344 140.679688 227.21875 139.429688 C 228.621094 138.328125 229.394531 137.074219 229.191406 136.230469 C 228.808594 134.65625 226.285156 135.605469 225.234375 135.050781 C 224.929688 134.175781 226.546875 133.671875 227.027344 131.945312 C 227.207031 131.238281 227.011719 130.800781 226.8125 130.5625 C 226.46875 130.144531 225.851562 129.996094 225.324219 130.023438 C 224.253906 130.082031 223.171875 130.828125 222.425781 130.25 C 222.347656 129.53125 223.558594 128.085938 223.289062 126.925781 C 222.921875 125.148438 219.726562 126.75 218.847656 126.441406 C 218.664062 125.832031 219.882812 123.957031 218.957031 122.878906 C 218.722656 122.605469 218.339844 122.46875 217.808594 122.613281 C 217.785156 122.621094 215.644531 123.625 215.167969 124.023438 L 215.148438 123.988281 C 214.074219 124.574219 214.066406 123.4375 214.394531 122.402344 C 214.789062 121.171875 214.546875 120.496094 214.273438 120.144531 C 212.960938 118.449219 210.453125 121.089844 210.40625 121.109375 C 208.433594 122.824219 206.832031 125.367188 205.640625 128.679688 C 203.632812 134.648438 206.101562 136.695312 204.398438 138.566406 C 201.867188 139.773438 198.5 137.023438 190.40625 137.460938 C 184.507812 137.78125 181.207031 140.082031 182.398438 141.929688 C 183.3125 143.355469 186.828125 142.398438 185.730469 144.320312 C 183.65625 145.890625 183.207031 146.382812 183.210938 147.085938 C 183.34375 149.558594 188.578125 147.542969 186.960938 149.90625 C 186.914062 149.972656 186.746094 150.128906 186.5625 150.289062 C 184.792969 151.890625 184.339844 153.113281 186.730469 153.488281 C 187.976562 153.652344 189.238281 153.027344 189.40625 153.800781 C 189.183594 155.300781 187.5625 157.210938 188.902344 158.046875 C 189.101562 158.167969 189.332031 158.222656 189.605469 158.207031 C 190.488281 158.160156 191.574219 157.378906 192.296875 157.339844 C 194.078125 157.242188 191.496094 160.84375 193.050781 161.78125 C 195.902344 163.503906 197.085938 156.9375 197.335938 162.316406 C 197.324219 163.511719 197.367188 164.128906 197.765625 164.507812 C 197.960938 164.691406 198.195312 164.777344 198.464844 164.761719 C 199.828125 164.691406 201.34375 162.511719 201.832031 162.484375 C 202.035156 162.476562 202.042969 163.441406 202.054688 163.644531 C 202.082031 164.449219 202.117188 165.355469 202.582031 165.746094 C 202.707031 165.921875 203.378906 166.210938 203.773438 166.191406 C 205.257812 166.113281 207.445312 164.171875 208.914062 160.03125 C 211.039062 154.03125 209.292969 149.101562 209.503906 146.699219 C 210.023438 140.828125 213.703125 150.488281 224.105469 149.921875 C 226 149.820312 227.707031 149.320312 229.167969 148.433594 C 232.449219 146.453125 227.269531 145.199219 227.167969 144.460938 " fill-opacity="1" fill-rule="nonzero"/></g></g></g></g></g><g clip-path="url(#deb6c38dc1)"><g clip-path="url(#0720b1c6ab)"><g clip-path="url(#6af177e282)"><path fill="#ffffff" d="M 213.4375 143.03125 C 212.933594 142.601562 212.339844 142.179688 211.609375 142.007812 C 210.882812 141.816406 210.101562 141.953125 209.4375 142.207031 C 208.769531 142.480469 208.160156 142.867188 207.640625 143.390625 C 207.390625 143.65625 207.160156 143.953125 206.984375 144.300781 C 206.808594 144.640625 206.695312 145.050781 206.683594 145.425781 C 206.667969 145.800781 206.710938 146.15625 206.75 146.484375 C 206.792969 146.816406 206.84375 147.136719 206.898438 147.460938 C 207.101562 148.761719 207.335938 150.058594 207.671875 151.34375 C 207.742188 150.019531 207.714844 148.699219 207.65625 147.386719 C 207.644531 146.730469 207.542969 146.050781 207.605469 145.496094 C 207.640625 145.214844 207.703125 144.976562 207.835938 144.738281 C 207.964844 144.5 208.140625 144.277344 208.34375 144.070312 C 208.742188 143.644531 209.257812 143.308594 209.792969 143.058594 C 210.335938 142.804688 210.898438 142.695312 211.46875 142.757812 C 212.625 142.882812 213.675781 143.882812 214.925781 144.34375 C 214.402344 143.925781 213.945312 143.472656 213.4375 143.03125 " fill-opacity="1" fill-rule="nonzero"/></g></g></g><g clip-path="url(#efe17abe39)"><g clip-path="url(#63fac427f1)"><g clip-path="url(#bf900574f1)"><path fill="#ffffff" d="M 190.800781 124.398438 C 190.828125 125.175781 190.34375 126.503906 189.988281 127.179688 C 183.453125 139.617188 169.046875 129.429688 177.179688 144.261719 C 179.363281 148.238281 180.539062 153.574219 178.21875 157.75 C 177.179688 159.613281 176.292969 155.269531 174.640625 156.09375 C 173.535156 156.644531 172.683594 159.085938 171.75 158.628906 C 171.632812 158.574219 171.546875 158.472656 171.464844 158.371094 C 170.953125 157.753906 170.554688 156.519531 169.660156 156.414062 C 168.511719 156.285156 167.878906 157.910156 166.875 157.925781 C 165.597656 157.941406 165.792969 155.714844 164.679688 155.4375 C 163.761719 155.203125 162.464844 157.078125 161.453125 155.417969 C 160.457031 153.78125 162.175781 151.171875 157.753906 153.742188 C 156.417969 153.953125 157.863281 151.332031 156.296875 150.570312 C 154.667969 149.777344 153.792969 152.339844 152.46875 150.4375 C 152.46875 149.445312 153.996094 147.996094 153.367188 147.261719 C 152.296875 146.003906 149.546875 147.667969 149.050781 146.664062 C 148.253906 145.050781 153.636719 140.136719 156.054688 138.699219 C 159.234375 136.804688 165.628906 136.816406 166.761719 133.289062 C 167.929688 129.636719 161.5 125.988281 160.65625 120.824219 C 159.582031 115.648438 161.820312 112.429688 163.023438 116.023438 C 163.351562 117.003906 164.234375 117.503906 165.019531 116.621094 C 165.714844 115.839844 165.691406 114.617188 166.332031 113.777344 C 167.164062 112.683594 167.816406 114.988281 168.300781 115.617188 C 168.703125 116.199219 169.324219 116.285156 170.09375 115.40625 C 170.632812 114.691406 170.835938 113.945312 171.636719 113.664062 C 171.714844 113.660156 171.78125 113.679688 171.84375 113.730469 C 171.96875 113.828125 172.074219 114 172.148438 114.179688 C 172.492188 115.003906 172.554688 117.527344 174.355469 117.152344 C 175.726562 116.867188 175.894531 115.816406 176.828125 115.058594 C 177.480469 114.53125 178.125 115.042969 178.21875 115.734375 C 178.332031 116.582031 177.921875 117.351562 178.546875 118.105469 C 179.539062 119.316406 180.636719 117.832031 181.816406 117.292969 C 183.859375 118.585938 181.742188 120.5 183.535156 120.890625 C 184.589844 121.121094 185.234375 119.546875 186.1875 119.921875 C 185.953125 121.050781 185.671875 122.480469 186.679688 123.0625 C 187.820312 123.722656 188.652344 122.386719 189.839844 122.8125 C 190.226562 122.949219 190.785156 123.96875 190.800781 124.398438 Z M 187.40625 122.304688 C 186.4375 121.941406 187.050781 120.820312 187.070312 120.167969 C 187.175781 115.992188 183.007812 121.90625 183.320312 118.925781 C 183.363281 118.515625 183.351562 118.089844 183.273438 117.683594 C 182.511719 114.472656 179.699219 118.972656 179.066406 117.320312 C 178.757812 116.519531 179.25 115.578125 178.867188 114.742188 C 178.101562 113.085938 176.671875 114.433594 175.789062 115.207031 C 175.460938 115.496094 174.847656 116.207031 174.351562 116.164062 C 173.546875 116.09375 173.402344 114.769531 173.257812 114.1875 C 173.15625 113.789062 172.992188 113.390625 172.691406 113.109375 C 172.390625 112.828125 171.925781 112.691406 171.554688 112.863281 C 171.378906 112.941406 171.242188 113.078125 171.105469 113.210938 C 170.425781 113.878906 169.496094 115.488281 168.605469 114.433594 C 168.253906 114.019531 167.925781 113.585938 167.625 113.128906 C 167.488281 112.929688 167.347656 112.710938 167.121094 112.621094 C 166.726562 112.464844 166.308594 112.777344 166.027344 113.097656 C 165.558594 113.628906 164.890625 115.777344 164.164062 115.84375 C 163.90625 115.863281 163.675781 115.671875 163.535156 115.453125 C 163.171875 114.886719 162.722656 114.175781 162.101562 113.855469 C 160.804688 113.191406 155.839844 120.132812 165.105469 130.625 C 165.898438 131.523438 166.320312 132.839844 165.476562 133.859375 C 163.722656 135.296875 157.285156 135.433594 151.367188 141.453125 C 150.335938 142.507812 147.421875 145.535156 148.46875 147.292969 C 149.324219 148.722656 152.140625 146.582031 152.199219 148.949219 C 152.210938 149.328125 152.078125 149.695312 151.910156 150.035156 C 151.472656 150.925781 151.878906 152.03125 152.921875 152.066406 C 153.480469 152.089844 153.878906 151.699219 154.386719 151.585938 C 155.21875 151.402344 155.914062 151.734375 156.039062 152.675781 C 156.679688 157.566406 159.410156 151.816406 160.3125 154.367188 C 160.109375 155.617188 160.6875 157.269531 161.210938 157.496094 C 162.476562 158.027344 164.277344 155.367188 164.867188 156.441406 C 164.84375 156.425781 164.824219 156.410156 164.800781 156.398438 C 165.121094 156.890625 165.152344 157.417969 165.28125 157.980469 C 165.5 158.964844 166.132812 159.8125 167.21875 159.359375 C 168.003906 159.035156 168.828125 157.265625 169.792969 157.570312 C 169.9375 157.617188 170.058594 157.71875 170.164062 157.824219 C 170.757812 158.398438 170.921875 159.453125 171.628906 159.894531 C 173.363281 160.96875 174.035156 156.761719 174.9375 156.878906 C 175.792969 156.988281 175.859375 157.914062 176.316406 158.457031 C 177.933594 160.375 179.320312 158.667969 179.871094 157.023438 C 183.320312 146.734375 172.542969 137.613281 177.171875 136.53125 C 187.972656 134.011719 193.167969 126.691406 191.214844 122.625 C 190.285156 120.648438 188.5 122.71875 187.40625 122.304688 " fill-opacity="1" fill-rule="nonzero"/></g></g></g><g clip-path="url(#e492556e77)"><g clip-path="url(#10194dc408)"><g clip-path="url(#de149383a9)"><path fill="#ffffff" d="M 175.203125 133.902344 C 175.871094 132.628906 176.582031 130.972656 176.910156 129.566406 C 176.347656 130.777344 175.046875 132.625 173.027344 134.890625 C 170.453125 138.058594 173.832031 143.382812 173.984375 144.097656 C 174.160156 144.753906 174.152344 145.460938 173.996094 146.152344 C 175.324219 143.375 172.664062 142.265625 173.433594 137.96875 C 173.941406 134.792969 175.792969 134.132812 178.730469 132.136719 C 177.527344 132.648438 176.308594 133.144531 175.203125 133.902344 " fill-opacity="1" fill-rule="nonzero"/></g></g></g><g clip-path="url(#051a90932b)"><g clip-path="url(#037741c65f)"><g clip-path="url(#632f08f445)"><path fill="#ffffff" d="M 169.480469 125.425781 C 169.980469 128.339844 168.585938 133.222656 168.292969 134.007812 C 165.835938 140.519531 160.628906 143.1875 161.476562 142.792969 C 174.789062 136.617188 168.96875 122.449219 169.480469 125.425781 " fill-opacity="1" fill-rule="nonzero"/></g></g></g><g fill="#ffffff" fill-opacity="1"><g transform="translate(82.619988, 205.904722)"><g><path d="M 28.441406 -8.121094 C 28.347656 -8.214844 28.253906 -8.261719 28.15625 -8.261719 C 28.015625 -8.261719 27.871094 -8.167969 27.777344 -8.070312 C 27.636719 -7.929688 27.492188 -7.738281 27.351562 -7.597656 C 25.117188 -4.984375 22.03125 -0.902344 17.09375 -0.902344 C 13.484375 -0.902344 10.875 -2.328125 8.070312 -3.796875 C 7.882812 -3.894531 7.691406 -3.988281 7.503906 -4.082031 C 7.835938 -4.558594 8.167969 -5.03125 8.5 -5.601562 C 9.972656 -7.976562 11.539062 -11.632812 13.246094 -14.863281 C 13.484375 -15.289062 13.722656 -15.714844 13.960938 -16.191406 C 18.328125 -17.804688 22.222656 -20.75 25.308594 -24.214844 C 27.683594 -26.921875 29.011719 -29.4375 28.917969 -31.195312 C 28.871094 -32.191406 28.347656 -32.90625 27.445312 -33.285156 C 27.066406 -33.476562 26.636719 -33.570312 26.257812 -33.570312 C 23.789062 -33.570312 21.226562 -30.199219 19.988281 -28.441406 C 17.804688 -25.308594 15.527344 -21.128906 13.296875 -16.902344 C 12.0625 -16.476562 10.730469 -16.191406 9.355469 -16.191406 C 7.882812 -16.191406 6.410156 -16.570312 5.128906 -17.519531 C 5.03125 -17.570312 4.984375 -17.617188 4.890625 -17.617188 C 4.75 -17.617188 4.605469 -17.519531 4.511719 -17.425781 C 4.367188 -17.234375 4.414062 -16.953125 4.605469 -16.808594 C 5.933594 -15.8125 7.503906 -15.289062 9.355469 -15.289062 C 9.6875 -15.289062 10.019531 -15.289062 10.398438 -15.335938 C 11.109375 -15.382812 11.917969 -15.527344 12.726562 -15.765625 C 12.628906 -15.621094 12.535156 -15.433594 12.441406 -15.289062 C 10.445312 -11.492188 8.40625 -7.027344 6.695312 -4.511719 C 5.652344 -5.03125 3.703125 -6.078125 2.515625 -6.078125 C 1.425781 -6.078125 0.808594 -5.460938 0.523438 -5.128906 C -0.238281 -4.082031 -0.191406 -2.5625 0.570312 -1.566406 C 0.855469 -1.234375 1.519531 -0.570312 2.707031 -0.570312 C 4.699219 -0.570312 5.886719 -1.757812 6.980469 -3.324219 C 7.21875 -3.230469 7.40625 -3.132812 7.644531 -2.992188 C 10.398438 -1.519531 13.296875 0 17.09375 0 C 22.554688 0 24.929688 -3.371094 28.015625 -6.980469 C 28.15625 -7.167969 28.300781 -7.3125 28.441406 -7.453125 C 28.632812 -7.644531 28.632812 -7.976562 28.441406 -8.121094 Z M 20.75 -27.917969 C 21.746094 -29.34375 24.167969 -32.667969 26.210938 -32.667969 C 27.113281 -32.667969 27.917969 -32.097656 28.015625 -31.148438 C 28.109375 -29.675781 26.828125 -27.300781 24.597656 -24.832031 C 22.316406 -22.222656 19.277344 -19.800781 16.332031 -18.234375 C 15.8125 -17.996094 15.242188 -17.710938 14.625 -17.425781 C 16.667969 -21.273438 18.707031 -25.070312 20.75 -27.917969 Z M 4.132812 -1.804688 C 3.609375 -1.613281 3.132812 -1.472656 2.707031 -1.472656 C 2.089844 -1.472656 1.613281 -1.710938 1.28125 -2.136719 C 0.757812 -2.800781 0.757812 -3.894531 1.28125 -4.558594 C 1.566406 -4.984375 1.996094 -5.175781 2.5625 -5.175781 C 3.417969 -5.175781 5.414062 -4.179688 6.171875 -3.75 C 5.414062 -2.753906 4.699219 -2.042969 4.132812 -1.804688 Z M 4.132812 -1.804688 "/></g></g></g><g fill="#ffffff" fill-opacity="1"><g transform="translate(110.391455, 205.904722)"><g><path d="M 22.980469 -8.167969 C 22.886719 -8.214844 22.839844 -8.261719 22.742188 -8.261719 C 22.601562 -8.261719 22.410156 -8.167969 22.316406 -8.070312 C 18.804688 -3.894531 15.667969 -1.28125 13.816406 -0.902344 C 13.484375 -0.855469 13.152344 -0.808594 12.867188 -0.808594 C 12.296875 -0.808594 11.824219 -0.949219 11.585938 -1.28125 C 10.777344 -2.328125 11.585938 -5.128906 12.726562 -7.359375 C 13.199219 -8.308594 16 -13.53125 16.050781 -13.578125 C 16.144531 -13.816406 16.097656 -14.054688 15.859375 -14.199219 C 15.8125 -14.246094 15.714844 -14.246094 15.667969 -14.246094 C 15.480469 -14.246094 15.335938 -14.148438 15.242188 -14.007812 L 15.195312 -13.914062 C 14.007812 -11.871094 12.25 -8.785156 10.160156 -6.125 C 8.355469 -3.796875 5.839844 -0.855469 2.613281 -0.855469 C 1.472656 -0.855469 0.617188 -1.234375 0.140625 -1.996094 C -0.757812 -3.371094 -0.378906 -5.792969 1.09375 -8.121094 C 3.609375 -12.0625 6.316406 -13.675781 8.214844 -13.675781 C 8.546875 -13.675781 8.832031 -13.628906 9.117188 -13.53125 C 10.160156 -13.152344 10.730469 -12.15625 10.636719 -10.875 C 10.636719 -10.589844 10.824219 -10.398438 11.0625 -10.351562 C 11.300781 -10.351562 11.539062 -10.542969 11.539062 -10.777344 C 11.679688 -12.535156 10.875 -13.914062 9.402344 -14.386719 C 9.023438 -14.480469 8.640625 -14.578125 8.214844 -14.578125 C 4.226562 -14.578125 -0.570312 -8.6875 -1.1875 -4.75 C -1.378906 -3.464844 -1.1875 -2.375 -0.617188 -1.519531 C 0.046875 -0.476562 1.1875 0.046875 2.660156 0.046875 C 6.269531 0.046875 9.023438 -3.132812 11.015625 -5.792969 C 10.445312 -4.082031 9.972656 -1.945312 10.875 -0.757812 C 11.300781 -0.191406 11.964844 0.09375 12.867188 0.09375 C 13.199219 0.09375 13.578125 0.046875 14.007812 0 C 16.808594 -0.617188 20.84375 -4.9375 23.027344 -7.503906 C 23.171875 -7.691406 23.171875 -7.976562 22.980469 -8.167969 Z M 22.980469 -8.167969 "/></g></g></g><g fill="#ffffff" fill-opacity="1"><g transform="translate(132.703575, 205.904722)"><g/></g></g><g fill="#ffffff" fill-opacity="1"><g transform="translate(147.230189, 205.904722)"><g><path d="M 22.410156 -28.394531 C 22.363281 -28.441406 22.269531 -28.441406 22.222656 -28.441406 C 22.03125 -28.441406 21.84375 -28.347656 21.792969 -28.203125 C 19.5625 -24.121094 17.710938 -20.558594 16.097656 -17.472656 C 12.773438 -11.015625 10.542969 -6.789062 8.59375 -4.132812 C 7.167969 -2.136719 5.839844 -0.710938 3.277344 -0.710938 C 1.851562 -0.902344 1.328125 -1.898438 1.140625 -2.46875 C 0.664062 -3.75 1.042969 -5.414062 1.996094 -6.363281 C 2.375 -6.742188 2.992188 -7.121094 3.941406 -7.121094 C 4.367188 -7.121094 4.84375 -7.027344 5.414062 -6.835938 C 5.699219 -6.835938 5.839844 -6.886719 5.984375 -7.121094 C 6.078125 -7.359375 5.933594 -7.644531 5.699219 -7.691406 C 5.082031 -7.929688 4.464844 -8.023438 3.941406 -8.023438 C 1.898438 -8.023438 0.523438 -6.601562 0.140625 -4.699219 C -0.046875 -3.847656 0 -2.945312 0.285156 -2.136719 C 0.710938 -0.808594 1.757812 0 3.132812 0.191406 C 6.171875 0.191406 7.550781 -1.1875 9.304688 -3.5625 C 11.300781 -6.316406 13.53125 -10.589844 16.902344 -17.046875 C 18.519531 -20.132812 20.371094 -23.695312 22.601562 -27.777344 C 22.695312 -27.96875 22.601562 -28.253906 22.410156 -28.394531 Z M 40.882812 -32.429688 C 40.789062 -32.527344 40.691406 -32.574219 40.597656 -32.574219 C 40.457031 -32.574219 40.359375 -32.527344 40.265625 -32.429688 C 37.132812 -29.058594 34.425781 -27.96875 31.765625 -27.96875 C 29.535156 -27.96875 27.351562 -28.726562 24.878906 -29.582031 C 21.035156 -30.863281 17.332031 -32.050781 13.246094 -32.050781 C 10.113281 -31.957031 7.597656 -30.769531 6.269531 -27.777344 C 6.171875 -27.539062 6.269531 -27.253906 6.503906 -27.160156 C 6.550781 -27.113281 6.648438 -27.113281 6.695312 -27.113281 C 6.886719 -27.113281 7.074219 -27.207031 7.121094 -27.398438 C 8.40625 -30.199219 10.730469 -31.148438 13.675781 -31.148438 C 17.332031 -31.148438 21.128906 -29.867188 24.597656 -28.726562 C 27.300781 -27.777344 29.628906 -27.113281 32.476562 -27.113281 C 35.46875 -27.300781 38.128906 -28.820312 40.929688 -31.765625 C 41.074219 -31.957031 41.074219 -32.242188 40.882812 -32.429688 Z M 40.882812 -32.429688 "/></g></g></g><g fill="#ffffff" fill-opacity="1"><g transform="translate(168.118127, 205.904722)"><g><path d="M 18.519531 -8.167969 C 18.421875 -8.214844 18.375 -8.261719 18.28125 -8.261719 C 18.136719 -8.261719 17.996094 -8.167969 17.902344 -8.070312 C 17.851562 -8.070312 16.191406 -5.886719 13.914062 -4.035156 C 12.296875 -2.707031 10.113281 -1.234375 8.167969 -1.234375 C 7.691406 -1.234375 7.21875 -1.328125 6.789062 -1.519531 C 5.933594 -1.898438 5.507812 -2.421875 5.507812 -3.230469 C 5.414062 -6.125 10.730469 -11.441406 13.152344 -12.867188 C 13.390625 -13.011719 13.53125 -13.105469 13.53125 -13.105469 C 13.769531 -13.246094 13.816406 -13.484375 13.722656 -13.722656 C 13.628906 -13.863281 13.484375 -13.960938 13.296875 -13.960938 C 13.246094 -13.960938 13.152344 -13.960938 13.105469 -13.914062 C 13.011719 -13.863281 12.867188 -13.769531 12.726562 -13.675781 C 11.824219 -13.199219 9.164062 -11.917969 6.550781 -11.917969 C 5.933594 -11.917969 5.316406 -11.964844 4.75 -12.15625 C 4.558594 -12.203125 4.367188 -12.25 4.179688 -12.34375 C 5.03125 -13.769531 5.933594 -15.480469 6.601562 -17.1875 C 8.121094 -21.175781 7.027344 -22.839844 6.21875 -23.503906 C 5.699219 -23.929688 5.03125 -24.167969 4.320312 -24.167969 C 2.375 -24.167969 0.523438 -22.601562 -0.238281 -20.890625 C -0.757812 -19.707031 -0.855469 -18.328125 -0.523438 -16.902344 C -0.191406 -15.382812 0.476562 -14.101562 1.472656 -13.105469 C 1.851562 -12.679688 2.328125 -12.296875 2.847656 -11.964844 C 1.378906 -9.734375 0.046875 -8.214844 0.046875 -8.167969 C -0.09375 -7.976562 -0.09375 -7.691406 0.09375 -7.503906 C 0.191406 -7.453125 0.285156 -7.40625 0.378906 -7.40625 C 0.523438 -7.40625 0.664062 -7.453125 0.757812 -7.550781 C 0.855469 -7.691406 2.183594 -9.257812 3.65625 -11.585938 C 4.558594 -11.109375 5.507812 -11.015625 6.550781 -11.015625 C 7.597656 -11.015625 8.785156 -11.207031 10.019531 -11.585938 C 9.355469 -10.96875 8.6875 -10.304688 8.023438 -9.542969 C 6.410156 -7.789062 4.511719 -5.222656 4.605469 -3.179688 C 4.652344 -2.042969 5.269531 -1.1875 6.457031 -0.664062 C 6.980469 -0.476562 7.550781 -0.332031 8.167969 -0.332031 C 10.351562 -0.332031 12.914062 -1.996094 14.53125 -3.324219 C 16.855469 -5.269531 18.519531 -7.40625 18.613281 -7.503906 C 18.753906 -7.691406 18.707031 -7.976562 18.519531 -8.167969 Z M 3.324219 -12.773438 C 1.851562 -13.675781 0.757812 -15.195312 0.332031 -17.09375 C -0.285156 -19.847656 0.996094 -21.792969 2.421875 -22.648438 C 3.039062 -23.027344 3.703125 -23.21875 4.320312 -23.21875 C 4.84375 -23.21875 5.316406 -23.078125 5.652344 -22.792969 C 6.648438 -21.984375 6.695312 -20.039062 5.746094 -17.519531 C 5.082031 -15.8125 4.226562 -14.199219 3.324219 -12.773438 Z M 3.324219 -12.773438 "/></g></g></g><g fill="#ffffff" fill-opacity="1"><g transform="translate(186.01529, 205.904722)"><g><path d="M 22.980469 -8.167969 C 22.886719 -8.214844 22.839844 -8.261719 22.742188 -8.261719 C 22.601562 -8.261719 22.410156 -8.167969 22.316406 -8.070312 C 18.804688 -3.894531 15.667969 -1.28125 13.816406 -0.902344 C 13.484375 -0.855469 13.152344 -0.808594 12.867188 -0.808594 C 12.296875 -0.808594 11.824219 -0.949219 11.585938 -1.28125 C 10.777344 -2.328125 11.585938 -5.128906 12.726562 -7.359375 C 13.199219 -8.308594 16 -13.53125 16.050781 -13.578125 C 16.144531 -13.816406 16.097656 -14.054688 15.859375 -14.199219 C 15.8125 -14.246094 15.714844 -14.246094 15.667969 -14.246094 C 15.480469 -14.246094 15.335938 -14.148438 15.242188 -14.007812 L 15.195312 -13.914062 C 14.007812 -11.871094 12.25 -8.785156 10.160156 -6.125 C 8.355469 -3.796875 5.839844 -0.855469 2.613281 -0.855469 C 1.472656 -0.855469 0.617188 -1.234375 0.140625 -1.996094 C -0.757812 -3.371094 -0.378906 -5.792969 1.09375 -8.121094 C 3.609375 -12.0625 6.316406 -13.675781 8.214844 -13.675781 C 8.546875 -13.675781 8.832031 -13.628906 9.117188 -13.53125 C 10.160156 -13.152344 10.730469 -12.15625 10.636719 -10.875 C 10.636719 -10.589844 10.824219 -10.398438 11.0625 -10.351562 C 11.300781 -10.351562 11.539062 -10.542969 11.539062 -10.777344 C 11.679688 -12.535156 10.875 -13.914062 9.402344 -14.386719 C 9.023438 -14.480469 8.640625 -14.578125 8.214844 -14.578125 C 4.226562 -14.578125 -0.570312 -8.6875 -1.1875 -4.75 C -1.378906 -3.464844 -1.1875 -2.375 -0.617188 -1.519531 C 0.046875 -0.476562 1.1875 0.046875 2.660156 0.046875 C 6.269531 0.046875 9.023438 -3.132812 11.015625 -5.792969 C 10.445312 -4.082031 9.972656 -1.945312 10.875 -0.757812 C 11.300781 -0.191406 11.964844 0.09375 12.867188 0.09375 C 13.199219 0.09375 13.578125 0.046875 14.007812 0 C 16.808594 -0.617188 20.84375 -4.9375 23.027344 -7.503906 C 23.171875 -7.691406 23.171875 -7.976562 22.980469 -8.167969 Z M 22.980469 -8.167969 "/></g></g></g><g fill="#ffffff" fill-opacity="1"><g transform="translate(208.32741, 205.904722)"><g><path d="M 17.046875 -8.167969 C 16.953125 -8.214844 16.855469 -8.261719 16.761719 -8.261719 C 16.617188 -8.261719 16.523438 -8.214844 16.429688 -8.070312 C 13.578125 -4.75 12.34375 -4.082031 10.636719 -4.082031 C 8.640625 -4.082031 7.691406 -5.367188 7.21875 -7.121094 C 7.40625 -7.359375 7.597656 -7.597656 7.789062 -7.789062 C 8.6875 -8.832031 9.542969 -9.828125 10.304688 -10.777344 C 11.109375 -11.777344 11.300781 -12.820312 10.730469 -13.53125 C 10.398438 -14.007812 9.875 -14.246094 9.257812 -14.246094 C 7.929688 -14.246094 7.027344 -13.246094 6.503906 -12.109375 C 6.078125 -11.015625 5.933594 -9.589844 6.171875 -7.929688 C 6.171875 -7.738281 6.21875 -7.550781 6.269531 -7.40625 C 4.367188 -5.222656 2.5625 -2.992188 1.613281 -0.996094 C 1.042969 -2.421875 0.902344 -4.132812 0.855469 -5.652344 C 0.757812 -9.117188 1.566406 -11.917969 2.992188 -13.296875 C 3.179688 -13.484375 3.179688 -13.769531 2.992188 -13.960938 C 2.894531 -14.054688 2.800781 -14.101562 2.660156 -14.101562 C 2.5625 -14.101562 2.46875 -14.054688 2.375 -13.960938 C 0.570312 -12.25 0.046875 -9.304688 -0.046875 -7.121094 C -0.140625 -4.414062 0.238281 -1.945312 0.710938 -0.808594 C 0.855469 -0.425781 1.140625 0.140625 1.613281 0.140625 C 1.851562 0.140625 2.136719 0.046875 2.328125 -0.378906 C 3.132812 -2.183594 4.796875 -4.226562 6.550781 -6.316406 C 6.742188 -5.699219 7.027344 -5.175781 7.359375 -4.699219 C 8.214844 -3.609375 9.402344 -3.179688 10.730469 -3.179688 C 13.53125 -3.179688 15.480469 -5.507812 17.09375 -7.503906 C 17.285156 -7.691406 17.234375 -7.976562 17.046875 -8.167969 Z M 7.027344 -8.308594 C 6.695312 -11.300781 7.644531 -12.820312 8.6875 -13.199219 C 8.878906 -13.296875 9.070312 -13.34375 9.257812 -13.34375 C 9.542969 -13.34375 9.828125 -13.246094 10.019531 -13.011719 C 10.304688 -12.628906 10.113281 -12.011719 9.589844 -11.347656 C 8.832031 -10.398438 8.023438 -9.402344 7.121094 -8.40625 C 7.074219 -8.355469 7.074219 -8.308594 7.027344 -8.308594 Z M 7.027344 -8.308594 "/></g></g></g><g fill="#ffffff" fill-opacity="1"><g transform="translate(224.752931, 205.904722)"><g><path d="M 10.921875 -8.121094 C 10.824219 -8.167969 10.730469 -8.214844 10.636719 -8.214844 C 10.492188 -8.214844 10.398438 -8.167969 10.304688 -8.070312 C 6.742188 -3.894531 3.65625 -1.28125 1.757812 -0.902344 C 1.425781 -0.808594 1.09375 -0.808594 0.808594 -0.808594 C 0.238281 -0.808594 -0.191406 -0.949219 -0.425781 -1.28125 C -1.234375 -2.328125 -0.476562 -5.082031 0.664062 -7.3125 C 1.140625 -8.308594 3.988281 -13.484375 3.988281 -13.53125 C 4.132812 -13.769531 4.035156 -14.054688 3.847656 -14.148438 C 3.75 -14.199219 3.703125 -14.199219 3.609375 -14.199219 C 3.417969 -14.199219 3.277344 -14.148438 3.179688 -14.007812 C 3.085938 -13.769531 0.332031 -8.738281 -0.140625 -7.738281 C -0.757812 -6.550781 -2.5625 -2.5625 -1.140625 -0.710938 C -0.710938 -0.140625 -0.046875 0.140625 0.808594 0.140625 C 4.414062 0.140625 8.832031 -4.890625 10.96875 -7.453125 C 11.160156 -7.644531 11.109375 -7.929688 10.921875 -8.121094 Z M 4.605469 -15.859375 C 4.652344 -15.859375 4.75 -15.8125 4.796875 -15.8125 C 4.984375 -15.8125 5.128906 -15.90625 5.222656 -16.097656 L 5.886719 -17.378906 C 5.984375 -17.570312 5.933594 -17.851562 5.699219 -17.949219 C 5.601562 -17.996094 5.554688 -17.996094 5.460938 -17.996094 C 5.316406 -17.996094 5.128906 -17.902344 5.082031 -17.757812 L 4.414062 -16.476562 C 4.273438 -16.285156 4.367188 -16 4.605469 -15.859375 Z M 4.605469 -15.859375 "/></g></g></g><g fill="#ffffff" fill-opacity="1"><g transform="translate(235.054479, 205.904722)"><g><path d="M 22.980469 -8.167969 C 22.886719 -8.214844 22.839844 -8.261719 22.742188 -8.261719 C 22.601562 -8.261719 22.410156 -8.167969 22.316406 -8.070312 C 18.804688 -3.894531 15.667969 -1.28125 13.816406 -0.902344 C 13.484375 -0.855469 13.152344 -0.808594 12.867188 -0.808594 C 12.296875 -0.808594 11.824219 -0.949219 11.585938 -1.28125 C 10.777344 -2.328125 11.585938 -5.128906 12.726562 -7.359375 C 13.199219 -8.308594 16 -13.53125 16.050781 -13.578125 C 16.144531 -13.816406 16.097656 -14.054688 15.859375 -14.199219 C 15.8125 -14.246094 15.714844 -14.246094 15.667969 -14.246094 C 15.480469 -14.246094 15.335938 -14.148438 15.242188 -14.007812 L 15.195312 -13.914062 C 14.007812 -11.871094 12.25 -8.785156 10.160156 -6.125 C 8.355469 -3.796875 5.839844 -0.855469 2.613281 -0.855469 C 1.472656 -0.855469 0.617188 -1.234375 0.140625 -1.996094 C -0.757812 -3.371094 -0.378906 -5.792969 1.09375 -8.121094 C 3.609375 -12.0625 6.316406 -13.675781 8.214844 -13.675781 C 8.546875 -13.675781 8.832031 -13.628906 9.117188 -13.53125 C 10.160156 -13.152344 10.730469 -12.15625 10.636719 -10.875 C 10.636719 -10.589844 10.824219 -10.398438 11.0625 -10.351562 C 11.300781 -10.351562 11.539062 -10.542969 11.539062 -10.777344 C 11.679688 -12.535156 10.875 -13.914062 9.402344 -14.386719 C 9.023438 -14.480469 8.640625 -14.578125 8.214844 -14.578125 C 4.226562 -14.578125 -0.570312 -8.6875 -1.1875 -4.75 C -1.378906 -3.464844 -1.1875 -2.375 -0.617188 -1.519531 C 0.046875 -0.476562 1.1875 0.046875 2.660156 0.046875 C 6.269531 0.046875 9.023438 -3.132812 11.015625 -5.792969 C 10.445312 -4.082031 9.972656 -1.945312 10.875 -0.757812 C 11.300781 -0.191406 11.964844 0.09375 12.867188 0.09375 C 13.199219 0.09375 13.578125 0.046875 14.007812 0 C 16.808594 -0.617188 20.84375 -4.9375 23.027344 -7.503906 C 23.171875 -7.691406 23.171875 -7.976562 22.980469 -8.167969 Z M 22.980469 -8.167969 "/></g></g></g><g fill="#ffffff" fill-opacity="1"><g transform="translate(257.366599, 205.904722)"><g><path d="M 13.296875 -8.121094 C 13.199219 -8.167969 13.105469 -8.214844 13.011719 -8.214844 C 12.867188 -8.214844 12.773438 -8.167969 12.679688 -8.070312 C 12.441406 -7.835938 12.25 -7.597656 12.011719 -7.359375 C 8.972656 -3.796875 6.316406 -0.757812 2.5625 -0.757812 C 1.566406 -0.757812 0.332031 -0.996094 -0.238281 -1.898438 C -1.140625 -3.417969 0.046875 -6.171875 0.617188 -7.3125 C 1.472656 -9.023438 5.128906 -15.90625 7.976562 -21.226562 C 8.925781 -21.175781 9.972656 -21.082031 11.109375 -20.75 C 11.347656 -20.703125 11.585938 -20.84375 11.632812 -21.082031 C 11.726562 -21.320312 11.585938 -21.605469 11.347656 -21.652344 C 10.304688 -21.9375 9.355469 -22.078125 8.453125 -22.125 C 9.589844 -24.261719 10.589844 -26.066406 11.160156 -27.066406 C 11.300781 -27.253906 11.207031 -27.539062 11.015625 -27.683594 C 10.921875 -27.730469 10.875 -27.730469 10.777344 -27.730469 C 10.636719 -27.730469 10.445312 -27.636719 10.398438 -27.492188 C 9.78125 -26.449219 8.6875 -24.453125 7.40625 -22.125 C 5.699219 -21.792969 4.320312 -21.558594 2.847656 -21.558594 C 2.042969 -21.558594 1.28125 -21.652344 0.425781 -21.792969 C 0.140625 -21.84375 -0.09375 -21.652344 -0.140625 -21.414062 C -0.140625 -21.175781 0 -20.941406 0.238281 -20.890625 C 1.28125 -20.796875 2.136719 -20.703125 2.894531 -20.703125 C 4.320312 -20.703125 5.414062 -20.890625 6.933594 -21.226562 C 4.082031 -15.953125 0.664062 -9.402344 -0.191406 -7.738281 C -0.949219 -6.171875 -2.136719 -3.277344 -0.996094 -1.425781 C -0.238281 -0.191406 1.234375 0.140625 2.613281 0.140625 C 4.464844 0.140625 6.171875 -0.523438 7.976562 -1.898438 C 9.972656 -3.417969 11.777344 -5.507812 13.34375 -7.453125 C 13.53125 -7.644531 13.484375 -7.976562 13.296875 -8.121094 Z M 13.296875 -8.121094 "/></g></g></g><g fill="#ffffff" fill-opacity="1"><g transform="translate(270.041777, 205.904722)"><g><path d="M 22.980469 -8.167969 C 22.886719 -8.214844 22.839844 -8.261719 22.742188 -8.261719 C 22.601562 -8.261719 22.410156 -8.167969 22.316406 -8.070312 C 18.804688 -3.894531 15.667969 -1.28125 13.816406 -0.902344 C 13.484375 -0.855469 13.152344 -0.808594 12.867188 -0.808594 C 12.296875 -0.808594 11.824219 -0.949219 11.585938 -1.28125 C 10.777344 -2.328125 11.585938 -5.128906 12.726562 -7.359375 C 13.199219 -8.308594 16 -13.53125 16.050781 -13.578125 C 16.144531 -13.816406 16.097656 -14.054688 15.859375 -14.199219 C 15.8125 -14.246094 15.714844 -14.246094 15.667969 -14.246094 C 15.480469 -14.246094 15.335938 -14.148438 15.242188 -14.007812 L 15.195312 -13.914062 C 14.007812 -11.871094 12.25 -8.785156 10.160156 -6.125 C 8.355469 -3.796875 5.839844 -0.855469 2.613281 -0.855469 C 1.472656 -0.855469 0.617188 -1.234375 0.140625 -1.996094 C -0.757812 -3.371094 -0.378906 -5.792969 1.09375 -8.121094 C 3.609375 -12.0625 6.316406 -13.675781 8.214844 -13.675781 C 8.546875 -13.675781 8.832031 -13.628906 9.117188 -13.53125 C 10.160156 -13.152344 10.730469 -12.15625 10.636719 -10.875 C 10.636719 -10.589844 10.824219 -10.398438 11.0625 -10.351562 C 11.300781 -10.351562 11.539062 -10.542969 11.539062 -10.777344 C 11.679688 -12.535156 10.875 -13.914062 9.402344 -14.386719 C 9.023438 -14.480469 8.640625 -14.578125 8.214844 -14.578125 C 4.226562 -14.578125 -0.570312 -8.6875 -1.1875 -4.75 C -1.378906 -3.464844 -1.1875 -2.375 -0.617188 -1.519531 C 0.046875 -0.476562 1.1875 0.046875 2.660156 0.046875 C 6.269531 0.046875 9.023438 -3.132812 11.015625 -5.792969 C 10.445312 -4.082031 9.972656 -1.945312 10.875 -0.757812 C 11.300781 -0.191406 11.964844 0.09375 12.867188 0.09375 C 13.199219 0.09375 13.578125 0.046875 14.007812 0 C 16.808594 -0.617188 20.84375 -4.9375 23.027344 -7.503906 C 23.171875 -7.691406 23.171875 -7.976562 22.980469 -8.167969 Z M 22.980469 -8.167969 "/></g></g></g><g fill="#ffffff" fill-opacity="1"><g transform="translate(134.673138, 238.749462)"><g><path d="M 1.449219 0 L 2.792969 0 L 2.792969 -10.574219 L 1.449219 -10.574219 Z M 1.449219 0 "/></g></g></g><g fill="#ffffff" fill-opacity="1"><g transform="translate(146.530843, 238.749462)"><g><path d="M 8.882812 -10.574219 L 0.40625 -10.574219 L 0.40625 -10.269531 L 3.988281 -10.269531 L 3.988281 0 L 5.332031 0 L 5.332031 -10.269531 L 8.882812 -10.269531 Z M 8.882812 -10.574219 "/></g></g></g><g fill="#ffffff" fill-opacity="1"><g transform="translate(163.444925, 238.749462)"><g><path d="M 8.898438 0 L 10.300781 0 L 5.679688 -10.574219 L 5.089844 -10.574219 L 0.453125 0 L 0.875 0 L 2.25 -3.125 L 7.539062 -3.125 Z M 2.371094 -3.429688 L 4.894531 -9.183594 L 7.402344 -3.429688 Z M 2.371094 -3.429688 "/></g></g></g><g fill="#ffffff" fill-opacity="1"><g transform="translate(181.823096, 238.749462)"><g><path d="M 2.792969 -0.300781 L 2.792969 -10.574219 L 1.449219 -10.574219 L 1.449219 0 L 8.519531 0 L 8.519531 -0.300781 Z M 2.792969 -0.300781 "/></g></g></g><g fill="#ffffff" fill-opacity="1"><g transform="translate(198.495683, 238.749462)"><g><path d="M 1.449219 0 L 2.792969 0 L 2.792969 -10.574219 L 1.449219 -10.574219 Z M 1.449219 0 "/></g></g></g><g fill="#ffffff" fill-opacity="1"><g transform="translate(210.353387, 238.749462)"><g><path d="M 8.898438 0 L 10.300781 0 L 5.679688 -10.574219 L 5.089844 -10.574219 L 0.453125 0 L 0.875 0 L 2.25 -3.125 L 7.539062 -3.125 Z M 2.371094 -3.429688 L 4.894531 -9.183594 L 7.402344 -3.429688 Z M 2.371094 -3.429688 "/></g></g></g><g fill="#ffffff" fill-opacity="1"><g transform="translate(228.731556, 238.749462)"><g><path d="M 9.789062 -10.574219 L 9.789062 -1.8125 L 2.582031 -10.574219 L 1.449219 -10.574219 L 1.449219 0 L 1.8125 0 L 1.8125 -9.484375 L 9.636719 0 L 10.152344 0 L 10.152344 -10.574219 Z M 9.789062 -10.574219 "/></g></g></g><g fill="#ffffff" fill-opacity="1"><g transform="translate(247.946568, 238.749462)"><g/></g></g></svg>